<?xml version="1.0" standalone="no"?><!DOCTYPE svg PUBLIC "-//W3C//DTD SVG 1.1//EN" "http://www.w3.org/Graphics/SVG/1.1/DTD/svg11.dtd"><svg t="1529999486356" class="icon" style="" viewBox="0 0 1024 1024" version="1.1" xmlns="http://www.w3.org/2000/svg" p-id="2296" data-spm-anchor-id="a313x.7781069.0.i15" xmlns:xlink="http://www.w3.org/1999/xlink" width="64" height="64"><defs><style type="text/css"></style></defs><path d="M511.999488 64.246233C264.717546 64.246233 64.246745 264.717034 64.246745 511.998977c0 247.287059 200.470801 447.753767 447.752744 447.753767 247.286036 0 447.752744-200.465684 447.752744-447.753767C959.752232 264.717034 759.285524 64.246233 511.999488 64.246233L511.999488 64.246233zM511.999488 907.07908c-218.189348 0-395.074987-176.88564-395.074987-395.080104 0-218.190371 176.88564-395.073964 395.074987-395.073964 218.193441 0 395.07908 176.883593 395.07908 395.073964C907.078569 730.193441 730.191906 907.07908 511.999488 907.07908L511.999488 907.07908zM511.999488 288.123117c-20.602224 0-37.319977 16.693194-37.319977 37.297464l0 242.549152c0 20.600177 16.717753 37.293371 37.319977 37.293371 20.60427 0 37.297464-16.693194 37.297464-37.293371L549.296953 325.420581C549.296953 304.815287 532.603759 288.123117 511.999488 288.123117L511.999488 288.123117zM511.999488 661.233859c-20.602224 0-37.319977 16.72287-37.319977 37.319977 0 20.60427 16.717753 37.323047 37.319977 37.323047 20.60427 0 37.297464-16.718777 37.297464-37.323047C549.296953 677.956729 532.603759 661.233859 511.999488 661.233859L511.999488 661.233859zM511.999488 661.233859" p-id="2297" data-spm-anchor-id="a313x.7781069.0.i16" class="" fill="#ffffff"></path></svg>