<?xml version="1.0" standalone="no"?><!DOCTYPE svg PUBLIC "-//W3C//DTD SVG 1.1//EN" "http://www.w3.org/Graphics/SVG/1.1/DTD/svg11.dtd"><svg t="1530001864537" class="icon" style="" viewBox="0 0 1025 1024" version="1.1" xmlns="http://www.w3.org/2000/svg" p-id="1644" xmlns:xlink="http://www.w3.org/1999/xlink" width="64.0625" height="64"><defs><style type="text/css"></style></defs><path d="M511.9455 958.712809c-247.065724 0-448.054313-200.987589-448.054313-448.060313 0-247.065724 200.987589-448.054313 448.054313-448.054313 247.072724 0 448.060313 200.987589 448.060313 448.054313C960.005813 757.72422 759.017224 958.712809 511.9455 958.712809L511.9455 958.712809zM511.9455 126.893372c-211.60762 0-383.758124 172.150504-383.758124 383.758124 0 211.58062 172.150504 383.765124 383.758124 383.765124 211.58062 0 383.765124-172.184504 383.765124-383.765124C895.709624 299.043876 723.52512 126.893372 511.9455 126.893372L511.9455 126.893372zM511.9455 126.893372" p-id="1645" data-spm-anchor-id="a313x.7781069.0.i0" class="selected" fill="#ffffff"></path><path d="M726.94813 391.825148c-12.545037-12.448036-32.837096-12.322036-45.249133 0.254001L448.388314 627.94784l-103.280303-106.122311c-12.350036-12.707037-32.612096-12.932038-45.249133-0.640002-12.678037 12.322036-12.965038 32.612096-0.640002 45.251133l126.032369 129.522379c0.064 0.093 0.190001 0.093 0.254001 0.190001 0.064 0.064 0.097 0.191001 0.161 0.254001 2.017006 1.988006 4.512013 3.204009 6.88102 4.547013 1.250004 0.674002 2.241007 1.793005 3.52001 2.305007 3.873011 1.601005 8.000023 2.398007 12.096035 2.398007 4.063012 0 8.131024-0.796002 11.969035-2.334007 1.250004-0.513002 2.208006-1.539005 3.39401-2.178006 2.398007-1.344004 4.898014-2.525007 6.94502-4.542013 0.063-0.064 0.098-0.196001 0.190001-0.259001 0.064-0.094 0.161-0.128 0.259001-0.191001l256.253751-259.041759C739.626167 424.499244 739.494166 404.242184 726.94813 391.825148L726.94813 391.825148zM726.94813 391.825148" p-id="1646" data-spm-anchor-id="a313x.7781069.0.i1" class="selected" fill="#ffffff"></path></svg>