<?xml version="1.0" standalone="no"?><!DOCTYPE svg PUBLIC "-//W3C//DTD SVG 1.1//EN" "http://www.w3.org/Graphics/SVG/1.1/DTD/svg11.dtd"><svg t="1525687161524" class="icon" style="" viewBox="0 0 1024 1024" version="1.1" xmlns="http://www.w3.org/2000/svg" p-id="7063" xmlns:xlink="http://www.w3.org/1999/xlink" width="32" height="32"><defs><style type="text/css"></style></defs><path d="M927.750889 778.143523 317.118498 778.143523c-3.334955 0-9.022491-4.751211-9.775644-11.100826l-59.226916-416.939971L214.859509 158.329005c-7.491625-61.23669-61.442374-109.225657-122.816187-109.225657l-67.609841 0c-12.928451 0-23.38971 10.461259-23.38971 23.38971S11.506055 95.880721 24.433482 95.880721l67.609841 0c38.144762 0 71.720462 29.945009 76.562746 69.299319l33.302477 192.207603 59.043744 415.729399c3.426029 28.573779 28.619828 51.803853 56.166207 51.803853l610.632391 0c12.928451 0 23.38971-10.461259 23.38971-23.38971C951.140599 788.603759 940.679339 778.143523 927.750889 778.143523z" p-id="7064" fill="#ffffff"></path><path d="M1005.52523 169.361269c-10.004865-11.329023-23.184025-17.313318-38.0762-17.313318l-630.66361 0c-12.928451 0-23.38971 10.461259-23.38971 23.38971s10.461259 23.38971 23.38971 23.38971l630.66361 0c1.14201 0 1.735527 0.068562 3.01466 1.50733 3.12927 3.540639 5.915733 11.877515 5.070482 19.094894l-62.836117 359.952049c-0.936325 7.515161-9.31925 14.412244-19.163455 14.526855l-488.433258 36.020378c-12.882402 0.936325-22.566972 12.151761-21.60711 25.034163 0.890276 12.311397 11.169387 21.675672 23.297612 21.675672 0.571005 0 1.164522-0.022513 1.735527-0.068562l486.856343-35.951817c31.93227-0.183172 59.935044-24.576745 63.566758-54.362118l62.85863-360.02061C1024.323365 205.380624 1018.064824 183.567829 1005.52523 169.361269z" p-id="7065" fill="#ffffff"></path><path d="M851.220888 897.758808c-34.8139 0-63.136969 28.326139-63.136969 63.133899 0 34.787294 28.338419 63.107293 63.136969 63.107293 34.766828 0 63.101153-28.324092 63.101153-63.107293C914.322042 926.084946 886.003066 897.758808 851.220888 897.758808z" p-id="7066" fill="#ffffff"></path><path d="M356.148419 897.758808c-34.812877 0-63.136969 28.326139-63.136969 63.133899 0 34.787294 28.338419 63.107293 63.136969 63.107293 34.766828 0 63.102177-28.324092 63.102177-63.107293C419.251619 926.084946 390.930597 897.758808 356.148419 897.758808z" p-id="7067" fill="#ffffff"></path></svg>