<?xml version="1.0" standalone="no"?><!DOCTYPE svg PUBLIC "-//W3C//DTD SVG 1.1//EN" "http://www.w3.org/Graphics/SVG/1.1/DTD/svg11.dtd"><svg t="1528268516475" class="icon" style="" viewBox="0 0 1024 1024" version="1.1" xmlns="http://www.w3.org/2000/svg" p-id="1966" xmlns:xlink="http://www.w3.org/1999/xlink" width="32" height="32"><defs><style type="text/css"></style></defs><path d="M388.605134 900.834866m-51.726082 0a50.548 50.548 0 1 0 103.452163 0 50.548 50.548 0 1 0-103.452163 0ZM821.897537 900.835889m-51.727105 0a50.549 50.549 0 1 0 103.45421 0 50.549 50.549 0 1 0-103.45421 0ZM863.097892 761.79109c-0.037862 0-0.076748 0-0.115634 0l-496.037447 1.824555-15.790638-1.700735c-5.079692-2.163269-27.458375-14.721283-35.709293-70.319555l-63.657832-478.475466c0.002047-0.76748-0.014326-1.538029-0.069585-2.315742-3.672646-51.243081-25.151843-80.298837-42.523489-95.649454-19.508309-17.240663-38.558178-21.790282-42.178635-22.528086-1.954515-0.398066-3.942799-0.603751-5.937223-0.617054l-63.24237-0.38681c-0.064468 0-0.127913 0-0.192382 0-16.866133 0-30.591739 13.621229-30.695093 30.510898-0.103354 16.954137 13.556761 30.783097 30.510898 30.886451l58.843176 0.360204c6.652514 2.557242 24.226774 12.107759 31.423687 43.074028 0.044002 0.765433 0.107447 1.532913 0.210801 2.304486l66.675562 501.158071c0.019443 0.144286 0.038886 0.287549 0.060375 0.431835 15.637142 106.007359 77.626985 120.631428 84.643796 121.95047 0.788969 0.148379 1.584078 0.265036 2.382257 0.350994l20.366863 2.193968c1.092891 0.11768 2.190899 0.177032 3.288906 0.177032 0.036839 0 0.073678 0 0.110517 0l497.742275-1.830695c16.954137-0.063445 30.648021-13.857613 30.586622-30.81175C893.731586 775.461437 879.99984 761.79109 863.097892 761.79109zM952.421266 292.251134c8.058536-35.101449 4.076852-64.312748-11.891841-86.917582-22.965038-32.509415-60.684104-36.037774-64.909335-36.33351-0.74599-0.052189-1.503237-0.079818-2.238994-0.074701l-521.552563 1.664919c-16.954137 0.054235-30.655184 13.842263-30.600949 30.797423 0.054235 16.95516 13.834076 30.68179 30.797423 30.600949l519.833409-1.659803c2.460028 0.420579 13.036921 2.662643 18.522865 10.429537 3.538593 5.009084 5.03876 12.558014 4.527107 22.01234-0.275269 1.058099-0.499373 2.140757-0.664126 3.246951l-2.176572 14.661931c-0.309038 1.25048-0.639566 2.517333-0.997724 3.804652-0.937348 3.371794-1.263783 6.767124-1.063215 10.075473l-37.120432 250.000867c-0.428765 1.575892-0.743944 3.202948-0.920976 4.879124-4.958942 46.840818-25.684986 52.697199-28.92989 53.328579l-404.592758 36.367279c-16.886599 1.517563-29.345352 16.437367-27.827789 33.323966 1.433652 15.953344 14.82566 27.952632 30.540573 27.952632 0.919952 0 1.850138-0.040932 2.783393-0.124843l405.007197-36.405141c4.903683-0.433882 22.982434-3.013637 41.557488-17.937534 10.81123-8.685823 23.471574-23.048949 32.396851-46.207391 3.054569-3.993964 5.17179-8.79327 5.962805-14.118556L952.421266 292.251134z" p-id="1967" fill="#9A9A9A"></path></svg>