<?xml version="1.0" standalone="no"?><!DOCTYPE svg PUBLIC "-//W3C//DTD SVG 1.1//EN" "http://www.w3.org/Graphics/SVG/1.1/DTD/svg11.dtd"><svg t="1525687190946" class="icon" style="" viewBox="0 0 1366 1024" version="1.1" xmlns="http://www.w3.org/2000/svg" p-id="8008" xmlns:xlink="http://www.w3.org/1999/xlink" width="42.6875" height="32"><defs><style type="text/css"></style></defs><path d="M227.555556 56.888889C227.555556 25.470009 253.457408 0 283.978126 0L1308.910763 0C1340.072107 0 1365.333333 25.250987 1365.333333 56.888889 1365.333333 88.307769 1339.431481 113.777778 1308.910763 113.777778L283.978126 113.777778C252.816782 113.777778 227.555556 88.526791 227.555556 56.888889ZM0 56.888889C0 25.470009 25.250987 0 56.888889 0 88.307769 0 113.777778 25.250987 113.777778 56.888889 113.777778 88.307769 88.526791 113.777778 56.888889 113.777778 25.470009 113.777778 0 88.526791 0 56.888889ZM227.555556 512C227.555556 480.58112 253.457408 455.111111 283.978126 455.111111L1308.910763 455.111111C1340.072107 455.111111 1365.333333 480.362098 1365.333333 512 1365.333333 543.41888 1339.431481 568.888889 1308.910763 568.888889L283.978126 568.888889C252.816782 568.888889 227.555556 543.637902 227.555556 512ZM0 512C0 480.58112 25.250987 455.111111 56.888889 455.111111 88.307769 455.111111 113.777778 480.362098 113.777778 512 113.777778 543.41888 88.526791 568.888889 56.888889 568.888889 25.470009 568.888889 0 543.637902 0 512ZM227.555556 967.111111C227.555556 935.692231 253.457408 910.222222 283.978126 910.222222L1308.910763 910.222222C1340.072107 910.222222 1365.333333 935.473209 1365.333333 967.111111 1365.333333 998.529991 1339.431481 1024 1308.910763 1024L283.978126 1024C252.816782 1024 227.555556 998.749013 227.555556 967.111111ZM0 967.111111C0 935.692231 25.250987 910.222222 56.888889 910.222222 88.307769 910.222222 113.777778 935.473209 113.777778 967.111111 113.777778 998.529991 88.526791 1024 56.888889 1024 25.470009 1024 0 998.749013 0 967.111111Z" p-id="8009" fill="#ffffff"></path></svg>