<?xml version="1.0" standalone="no"?><!DOCTYPE svg PUBLIC "-//W3C//DTD SVG 1.1//EN" "http://www.w3.org/Graphics/SVG/1.1/DTD/svg11.dtd"><svg t="1526990485359" class="icon" style="" viewBox="0 0 1024 1024" version="1.1" xmlns="http://www.w3.org/2000/svg" p-id="1936" xmlns:xlink="http://www.w3.org/1999/xlink" width="16" height="16"><defs><style type="text/css"></style></defs><path d="M564.89472 512l381.58336-381.5936c14.61248-14.60736 14.61248-38.28736 0-52.89472s-38.29248-14.60736-52.8896 0L512 459.10528l-381.5936-381.5936A37.4016 37.4016 0 1 0 77.51168 130.4064L459.10528 512l-381.5936 381.58848a37.39648 37.39648 0 0 0 0 52.8896 37.39136 37.39136 0 0 0 52.89472 0L512 564.89472l381.58848 381.58336a37.38624 37.38624 0 0 0 52.8896 0 37.38624 37.38624 0 0 0 0-52.8896L564.89472 512z" fill="#B9B9B9" p-id="1937"></path></svg>