<?xml version="1.0" standalone="no"?><!DOCTYPE svg PUBLIC "-//W3C//DTD SVG 1.1//EN" "http://www.w3.org/Graphics/SVG/1.1/DTD/svg11.dtd"><svg t="1527150689609" class="icon" style="" viewBox="0 0 1024 1024" version="1.1" xmlns="http://www.w3.org/2000/svg" p-id="1841" xmlns:xlink="http://www.w3.org/1999/xlink" width="32" height="32"><defs><style type="text/css"></style></defs><path d="M511.778966 60.665685c-246.321058 0-446.003913 199.606107-446.003913 445.833021s199.682855 445.833021 446.003913 445.833021 446.003913-199.606107 446.003913-445.833021S758.100024 60.665685 511.778966 60.665685zM650.807393 315.397297l24.49488-46.702672 24.499997 46.702672 49.825802 10.06217-34.684964 38.919405 6.296403 52.924373-45.937239-22.647813-45.932122 22.647813 6.29231-52.924373-34.679847-38.919405L650.807393 315.397297zM307.881113 315.397297l24.499997-46.702672 24.49488 46.702672 49.825802 10.06217-34.684964 38.919405 6.296403 52.924373-45.932122-22.647813-45.937239 22.647813 6.29231-52.924373-34.679847-38.919405L307.881113 315.397297zM511.778966 776.358877c-134.367267 0-243.293095-81.661881-243.293095-182.39819l486.585167 0C755.072061 694.696995 646.146233 776.358877 511.778966 776.358877z" p-id="1842" fill="#0AAD64"></path></svg>