<?xml version="1.0" standalone="no"?><!DOCTYPE svg PUBLIC "-//W3C//DTD SVG 1.1//EN" "http://www.w3.org/Graphics/SVG/1.1/DTD/svg11.dtd"><svg t="1526723524848" class="icon" style="" viewBox="0 0 1024 1024" version="1.1" xmlns="http://www.w3.org/2000/svg" p-id="874" xmlns:xlink="http://www.w3.org/1999/xlink" width="32" height="32"><defs><style type="text/css"></style></defs><path d="M114.133333 490.666667l-14.656 22.378666a21.333333 21.333333 0 0 0-3.477333 11.690667V725.333333a21.333333 21.333333 0 0 0 21.333333 21.333334h42.794667v42.666666H117.333333a64 64 0 0 1-64-64v-200.597333a64 64 0 0 1 10.453334-35.072l134.101333-204.736A64 64 0 0 1 251.434667 256h144.746666A149.376 149.376 0 0 1 544 128h277.333333a149.333333 149.333333 0 0 1 149.333334 149.333333v362.666667a149.333333 149.333333 0 0 1-149.333334 149.333333v-42.666666a106.666667 106.666667 0 0 0 106.666667-106.666667V277.333333a106.666667 106.666667 0 0 0-106.666667-106.666666h-277.333333a106.666667 106.666667 0 0 0-106.666667 106.666666v469.333334h231.36v42.666666h-338.773333v-42.666666H394.666667V298.666667h-64v170.666666a64 64 0 0 1-64 64h-170.666667v-42.666666h18.133333z m0 0h152.533334a21.333333 21.333333 0 0 0 21.333333-21.333334v-170.666666h-36.565333a21.333333 21.333333 0 0 0-17.856 9.642666L114.133333 490.666667z" p-id="875" fill="#9E9E9E"></path><path d="M245.333333 896a106.666667 106.666667 0 1 1 0-213.333333 106.666667 106.666667 0 0 1 0 213.333333z m0-42.666667a64 64 0 1 0 0-128 64 64 0 0 0 0 128zM757.333333 896a106.666667 106.666667 0 1 1 0-213.333333 106.666667 106.666667 0 0 1 0 213.333333z m0-42.666667a64 64 0 1 0 0-128 64 64 0 0 0 0 128z" p-id="876" fill="#9E9E9E"></path></svg>