<?xml version="1.0" standalone="no"?><!DOCTYPE svg PUBLIC "-//W3C//DTD SVG 1.1//EN" "http://www.w3.org/Graphics/SVG/1.1/DTD/svg11.dtd"><svg t="1526723546344" class="icon" style="" viewBox="0 0 1024 1024" version="1.1" xmlns="http://www.w3.org/2000/svg" p-id="1546" xmlns:xlink="http://www.w3.org/1999/xlink" width="32" height="32"><defs><style type="text/css"></style></defs><path d="M872.96 266.24c-12.8 15.36-33.28 33.28-64 61.44-33.28 33.28-79.36 33.28-112.64 0-33.28-33.28-33.28-79.36 0-110.08 30.72-30.72 61.44-66.56 61.44-66.56-87.04-40.96-194.56-25.6-266.24 46.08-66.56 66.56-84.48 158.72-56.32 243.2L158.72 716.8c-40.96 40.96-40.96 107.52 0 148.48 40.96 40.96 107.52 40.96 148.48 0L586.24 588.8c81.92 28.16 176.64 7.68 243.2-56.32 69.12-74.24 84.48-179.2 43.52-266.24z m-81.92 227.84c-58.88 58.88-148.48 69.12-217.6 30.72L268.8 826.88c-20.48 20.48-53.76 20.48-74.24 0-20.48-20.48-20.48-53.76 0-74.24l304.64-302.08c-38.4-69.12-28.16-158.72 30.72-217.6 35.84-35.84 81.92-51.2 128-53.76-48.64 51.2-48.64 133.12 2.56 181.76 51.2 51.2 130.56 51.2 181.76 2.56 0 48.64-17.92 94.72-51.2 130.56z" p-id="1547" fill="#9E9E9E"></path></svg>