<?xml version="1.0" standalone="no"?><!DOCTYPE svg PUBLIC "-//W3C//DTD SVG 1.1//EN" "http://www.w3.org/Graphics/SVG/1.1/DTD/svg11.dtd"><svg t="1526202623518" class="icon" style="" viewBox="0 0 1024 1024" version="1.1" xmlns="http://www.w3.org/2000/svg" p-id="1734" xmlns:xlink="http://www.w3.org/1999/xlink" width="16" height="16"><defs><style type="text/css"></style></defs><path d="M857.599993 12.8C844.799994 0 819.199994 0 806.399994 19.2L512 358.399993 217.600006 19.2C204.800006 0 179.200006 0 166.400007 12.8 147.200007 25.6 147.200007 51.199999 160.000007 63.999999l268.799995 307.199994L230.400005 371.199993C211.200006 377.599993 192.000006 390.399992 192.000006 415.999992s19.2 38.399999 38.399999 38.399999l243.199995 0 0 147.199997L230.400005 601.599988C211.200006 601.599988 192.000006 614.399988 192.000006 639.999988s19.2 38.399999 38.399999 38.399999l243.199995 0 0 307.199994C473.600001 1004.799981 492.8 1023.99998 512 1023.99998s38.399999-19.2 38.399999-38.399999l0-307.199994 243.199995 0c19.2 0 38.399999-19.2 38.399999-38.399999s-19.2-38.399999-38.399999-38.399999L550.399999 601.599988 550.399999 454.399991l243.199995 0c19.2 0 38.399999-19.2 38.399999-38.399999s-19.2-38.399999-38.399999-38.399999L595.199998 377.599993 863.999993 63.999999C876.799993 51.199999 876.799993 25.6 857.599993 12.8z" p-id="1735" fill="#ea625b"></path></svg>