<?xml version="1.0" standalone="no"?><!DOCTYPE svg PUBLIC "-//W3C//DTD SVG 1.1//EN" "http://www.w3.org/Graphics/SVG/1.1/DTD/svg11.dtd"><svg t="1526897327798" class="icon" style="" viewBox="0 0 1024 1024" version="1.1" xmlns="http://www.w3.org/2000/svg" p-id="1927" xmlns:xlink="http://www.w3.org/1999/xlink" width="32" height="32"><defs><style type="text/css"></style></defs><path d="M559.250603 877.714286H460.964889q-7.428571 0-12.857143-5.142857t-5.428572-13.142858v-188.571428H278.107746q-7.428571 0-12.857143-5.142857t-5.428572-13.142857v-58.857143q0-7.428571 5.428572-12.857143t12.857143-5.428572h164.571428v-48.571428H278.107746q-7.428571 0-12.857143-5.142857T259.822031 508.571429V449.142857q0-7.428571 5.428572-12.857143T278.107746 430.857143h122.285714L216.964889 100.571429q-4.571429-9.142857 0-18.285715 5.714286-9.142857 16-9.142857h110.857142q10.857143 0 16.571429 10.285714l122.857143 242.857143q10.857143 21.714286 32 71.428572 5.714286-13.714286 17.428571-38.857143t15.714286-34.857143l109.142857-240q4.571429-10.857143 16.571429-10.857143h109.142857q9.714286 0 15.428571 9.142857 5.142857 8 0.571429 17.714286L620.39346 430.857143h122.857143q7.428571 0 12.857143 5.428571T761.536317 449.142857v59.428572q0 8-5.428571 13.142857t-12.857143 5.142857H577.536317v48.571428h165.714286q7.428571 0 12.857143 5.428572t5.428571 12.857143v58.857143q0 8-5.428571 13.142857t-12.857143 5.142857H577.536317v188.571428q0 7.428571-5.428571 12.857143T559.250603 877.714286z" p-id="1928" fill="#0AAD64"></path></svg>