<?xml version="1.0" standalone="no"?><!DOCTYPE svg PUBLIC "-//W3C//DTD SVG 1.1//EN" "http://www.w3.org/Graphics/SVG/1.1/DTD/svg11.dtd"><svg t="1526719556047" class="icon" style="" viewBox="0 0 1024 1024" version="1.1" xmlns="http://www.w3.org/2000/svg" p-id="8235" xmlns:xlink="http://www.w3.org/1999/xlink" width="48" height="48"><defs><style type="text/css"></style></defs><path d="M511.193635 0c-281.853319 0-511.172145 229.318826-511.172145 511.172145 0 122.9441 44.262086 241.750973 124.655068 334.530053 97.223299 112.271016 238.114143 176.642093 386.517077 176.642093 281.853319 0 511.172145-229.318826 511.172145-511.172145S793.046954 0 511.193635 0zM511.193635 973.661521c-109.490693 0-214.055191-39.274492-296.768007-108.639303 21.999037-146.970306 147.913794-256.483512 297.956066-256.483512 148.259672 0 273.390577 105.971543 297.566186 251.972778 0.13917 0.844228 0.651846 1.497097 0.871857 2.307555C730.023572 931.768389 625.484657 973.661521 511.193635 973.661521zM511.193635 559.854914c-89.593528 0-162.475442-72.881914-162.475442-162.450882 0-89.593528 72.881914-162.475442 162.475442-162.475442 89.568968 0 162.450882 72.881914 162.450882 162.475442C673.644517 486.973 600.762603 559.854914 511.193635 559.854914zM851.710029 823.041082C821.72511 704.982246 733.565235 613.695147 621.191888 577.280796c60.540841-37.158295 101.135398-103.775528 101.135398-179.876764 0-116.430756-94.703919-211.158211-211.134675-211.158211s-211.158211 94.727455-211.158211 211.158211c0 76.508511 41.041742 143.431713 102.128005 180.469258C289.565978 615.089913 201.836915 707.670471 172.708504 825.465295c-3.678786-3.959172-7.682983-7.538697-11.234879-11.640108-72.715115-83.935668-112.769366-191.404308-112.769366-302.653041 0-255.016091 207.473285-462.489376 462.489376-462.489376S973.683011 256.157078 973.683011 511.172145C973.683011 631.401414 927.181931 740.706889 851.710029 823.041082z" p-id="8236" data-spm-anchor-id="a313x.7781069.0.i10" class="selected" fill="#ffffff"></path></svg>