<?xml version="1.0" standalone="no"?><!DOCTYPE svg PUBLIC "-//W3C//DTD SVG 1.1//EN" "http://www.w3.org/Graphics/SVG/1.1/DTD/svg11.dtd"><svg t="1525741779596" class="icon" style="" viewBox="0 0 1024 1024" version="1.1" xmlns="http://www.w3.org/2000/svg" p-id="1932" xmlns:xlink="http://www.w3.org/1999/xlink" width="32" height="32"><defs><style type="text/css"></style></defs><path d="M513.1 595.4c165.5 0 299.6-133.1 299.6-297.3 0-164.2-134.2-297.3-299.6-297.3S213.5 133.9 213.5 298.1C213.5 462.3 347.6 595.4 513.1 595.4zM513.1 49.8c137.5 0 249.3 111.4 249.3 248.3 0 136.9-111.9 248.3-249.3 248.3S263.7 435 263.7 298.1C263.7 161.2 375.6 49.8 513.1 49.8z" p-id="1933" fill="#9B9B9B"></path><path d="M513.1 617.4c-219.3 0-397.7 181.9-397.7 405.2l51.1 0.2c0-193.9 155.5-352.1 346.6-352.1S859.7 817 859.7 1022l51.1 0C910.8 791 732.4 617.4 513.1 617.4z" p-id="1934" fill="#9B9B9B"></path><path d="M633.6 444.3l-15.2-20c-63.7 46.2-154.6 46.4-218.5 0.5l-15.2 20.1c36.3 26.1 79.2 39.8 124.1 39.8C554.1 484.7 597.2 470.8 633.6 444.3z" p-id="1935" fill="#9B9B9B"></path></svg>